<svg width="257" height="279" viewBox="0 0 257 279" fill="none" xmlns="http://www.w3.org/2000/svg">
<path d="M128.5 279C59.1883 279 3.00003 266.24 3.00003 250.5C3.00003 234.76 59.1883 222 128.5 222C197.812 222 254 234.76 254 250.5C254 266.24 197.812 279 128.5 279Z" fill="#D1EDF2"/>
<path d="M157.004 188.613C175.771 183.205 194.069 174.933 208.472 161.773C227.315 144.563 238.251 120.021 242.933 94.967C243.588 91.46 244.125 87.9415 244.566 84.4115C231.878 58.9902 210.427 43.3328 204.737 39.1795C162.254 8.1783 115.008 15.4104 105.947 16.9899C98.8457 18.2252 40.9746 29.2588 14.7003 80.7247C2.36456 104.888 2.69816 126.787 2.83621 131.353C3.39989 150.257 9.33577 166.408 17.024 179.572C60.7954 198.408 111.178 201.819 157.004 188.613Z" fill="#E9F8FF"/>
<path d="M178.911 180.689C180.767 173.162 183.209 165.789 185.656 158.43C187.523 152.808 189.395 147.19 191.262 141.568C193.927 133.552 196.918 125.062 203.586 119.857C207.8 116.568 213.054 114.961 218.177 113.416C225.531 111.202 232.882 108.991 240.237 106.777C241.295 102.868 242.193 98.9215 242.933 94.9632C243.588 91.4562 244.125 87.9377 244.566 84.4077C231.878 58.9864 210.427 43.329 204.737 39.1757C184.59 24.4706 163.37 18.3744 145.662 16.1868C144.76 17.6477 144.174 19.3228 144.02 21.0094C143.576 25.9086 145.941 30.6624 148.986 34.5289C152.031 38.3955 155.789 41.6616 158.841 45.5243C165.912 54.4774 168.723 65.9584 171.345 77.0532C173.447 85.9336 175.56 95.0856 174.145 104.1C172.684 113.397 167.522 122.056 167.626 131.468C167.714 139.518 171.687 147.305 170.862 155.313C170.153 162.167 165.939 168.271 160.658 172.715C155.382 177.159 149.074 180.176 142.843 183.144C133.882 187.412 124.917 191.684 115.955 195.952C129.84 194.9 143.614 192.464 156.996 188.605C164.451 186.464 171.825 183.867 178.911 180.689Z" fill="#BEF5CF"/>
<path d="M13.3239 86.3294C6.84962 90.597 34.374 30.4352 100.019 19.3582C101.92 26.1418 111.16 36.7945 105.402 64.6169C102.871 67.1175 100.273 69.5498 97.5882 71.8995C94.5579 74.5516 91.4113 77.0974 88.1617 79.5135C81.0135 76.7033 73.8706 73.8925 66.7223 71.0823C61.7415 69.1269 56.6204 67.1389 51.2747 67.1159C42.8155 67.0801 35.2131 71.9003 28.1602 76.5496C23.215 79.8113 18.2691 83.0677 13.3239 86.3294Z" fill="#BEF5CF"/>
<path d="M115.963 195.956C82.3109 198.507 48.0147 192.904 17.0315 179.568C31.2999 203.991 51.6192 218.107 54.9054 220.314C57.1333 221.81 59.3688 223.198 61.612 224.49C75.2669 215.388 90.3405 208.164 105.211 201.077C108.792 199.375 112.378 197.666 115.963 195.956Z" fill="#BBE0F3"/>
<path d="M254.114 122.002C253.957 115.436 253.052 109.221 251.599 103.366C251.388 102.524 251.169 101.687 250.935 100.857C250.932 100.841 250.928 100.822 250.92 100.807C250.694 100.004 250.46 99.2045 250.215 98.4166C250.203 98.3746 250.188 98.3325 250.176 98.2904C249.938 97.5332 249.693 96.7836 249.44 96.0416C249.413 95.969 249.39 95.8925 249.363 95.8198C249.122 95.1161 248.872 94.4201 248.616 93.7317C248.573 93.6246 248.535 93.5137 248.497 93.4066C248.251 92.7564 248.002 92.1177 247.745 91.479C247.688 91.3375 247.634 91.196 247.576 91.0584C247.331 90.4579 247.082 89.8651 246.825 89.2762C246.752 89.1079 246.683 88.9396 246.61 88.7751C246.357 88.2015 246.1 87.6354 245.839 87.0694C245.763 86.9011 245.686 86.7291 245.605 86.5608C245.268 85.8379 244.923 85.1266 244.57 84.4191C244.129 87.9491 243.592 91.4714 242.937 94.9746C242.197 98.9329 241.299 102.88 240.241 106.788C234.6 127.601 224.343 147.29 208.476 161.781C199.786 169.716 189.682 175.874 178.915 180.696C178.8 181.159 178.681 181.622 178.57 182.085C174.927 197.501 173.991 213.545 175.732 229.286C193.31 221.894 219.162 206.898 236.805 178.092C242.756 168.362 254.751 148.773 254.114 122.002Z" fill="#BBE0F3"/>
<path d="M175.728 229.279C175.702 229.29 175.675 229.301 175.652 229.309C175.679 229.301 175.702 229.29 175.728 229.279Z" fill="#BBE0F3"/>
<path d="M178.566 182.077C178.677 181.614 178.796 181.152 178.911 180.689C171.825 183.863 164.451 186.464 157.004 188.609C143.618 192.468 129.844 194.904 115.963 195.956C112.378 197.666 108.792 199.371 105.207 201.081C90.3367 208.164 75.2631 215.392 61.6083 224.494C61.6121 224.494 61.6159 224.498 61.6159 224.498C67.6132 227.956 73.6372 230.705 79.5885 232.87C79.623 232.881 79.6575 232.897 79.692 232.908C80.3055 233.13 80.9191 233.348 81.5326 233.555C81.5939 233.574 81.6515 233.597 81.7128 233.616C82.3072 233.818 82.9015 234.017 83.4959 234.209C83.5726 234.231 83.6454 234.258 83.7221 234.281C84.305 234.469 84.8878 234.652 85.4707 234.828C85.555 234.855 85.6394 234.878 85.7237 234.905C86.2989 235.077 86.8779 235.249 87.4493 235.409C87.5375 235.432 87.6218 235.459 87.71 235.482C88.2852 235.643 88.8566 235.8 89.4279 235.953C89.5123 235.975 89.5928 235.998 89.6772 236.018C90.2524 236.17 90.8275 236.316 91.4027 236.457C91.4794 236.476 91.5523 236.496 91.629 236.511C92.2118 236.652 92.7908 236.794 93.3698 236.924C93.4312 236.939 93.4925 236.951 93.5539 236.966C94.1483 237.1 94.7388 237.23 95.3293 237.356C95.3715 237.364 95.4098 237.371 95.452 237.383C96.0617 237.513 96.6714 237.635 97.2811 237.754C97.2887 237.754 97.2964 237.758 97.3003 237.758C104.92 239.242 112.232 239.907 118.992 240.045C119.015 240.045 119.042 240.045 119.065 240.045C119.594 240.056 120.12 240.064 120.641 240.068C120.687 240.068 120.733 240.068 120.779 240.068C121.285 240.071 121.788 240.071 122.286 240.071C122.344 240.071 122.405 240.071 122.463 240.071C122.95 240.068 123.437 240.064 123.916 240.056C123.981 240.056 124.05 240.056 124.115 240.052C124.591 240.045 125.062 240.033 125.53 240.022C125.599 240.022 125.672 240.018 125.741 240.014C126.205 240.003 126.665 239.984 127.125 239.968C127.194 239.964 127.267 239.964 127.336 239.961C127.793 239.941 128.249 239.922 128.698 239.899C128.763 239.896 128.828 239.892 128.893 239.888C129.349 239.865 129.798 239.838 130.247 239.811C130.3 239.808 130.354 239.804 130.408 239.8C130.864 239.773 131.317 239.743 131.765 239.708C131.807 239.704 131.846 239.7 131.888 239.7C132.348 239.666 132.808 239.632 133.261 239.593C133.272 239.593 133.288 239.59 133.299 239.59C137.16 239.268 140.696 238.813 143.84 238.316C143.844 238.316 143.852 238.316 143.856 238.312C144.204 238.255 144.55 238.201 144.891 238.144C144.945 238.136 144.998 238.125 145.052 238.117C145.363 238.064 145.665 238.014 145.968 237.96C146.049 237.945 146.129 237.934 146.21 237.918C146.49 237.869 146.766 237.819 147.038 237.769C147.134 237.75 147.23 237.735 147.322 237.716C147.579 237.67 147.832 237.62 148.081 237.574C148.185 237.555 148.292 237.536 148.396 237.513C148.63 237.467 148.863 237.421 149.09 237.379C149.201 237.356 149.316 237.333 149.427 237.31C149.646 237.268 149.86 237.222 150.071 237.18C150.186 237.157 150.298 237.134 150.409 237.111C150.612 237.069 150.811 237.027 151.011 236.985C151.126 236.962 151.241 236.935 151.352 236.912C151.54 236.87 151.728 236.832 151.912 236.79C152.027 236.763 152.138 236.74 152.249 236.714C152.426 236.675 152.598 236.637 152.767 236.599C152.882 236.572 152.993 236.549 153.104 236.522C153.266 236.484 153.423 236.45 153.576 236.415C153.691 236.388 153.802 236.362 153.914 236.335C154.059 236.301 154.201 236.266 154.343 236.236C154.454 236.209 154.562 236.182 154.673 236.155C154.807 236.125 154.937 236.09 155.068 236.06C155.179 236.033 155.282 236.006 155.39 235.979C155.505 235.952 155.624 235.922 155.735 235.895C155.85 235.868 155.957 235.838 156.069 235.811C156.168 235.788 156.268 235.761 156.36 235.738C156.471 235.712 156.575 235.685 156.682 235.658C156.766 235.635 156.851 235.616 156.931 235.593C157.05 235.562 157.158 235.536 157.269 235.505C157.33 235.49 157.392 235.474 157.453 235.459C157.614 235.417 157.771 235.379 157.913 235.341C158.028 235.31 158.155 235.279 158.285 235.245C158.319 235.237 158.35 235.226 158.385 235.218C158.515 235.184 158.653 235.146 158.799 235.107C158.826 235.1 158.852 235.092 158.883 235.084C159.002 235.054 159.125 235.019 159.255 234.985C159.309 234.97 159.362 234.954 159.42 234.939C159.566 234.901 159.719 234.859 159.872 234.813C159.934 234.798 159.995 234.778 160.06 234.759C160.172 234.729 160.287 234.694 160.402 234.664C160.478 234.641 160.559 234.618 160.636 234.595C160.797 234.549 160.958 234.503 161.126 234.453C161.218 234.427 161.31 234.4 161.406 234.373C161.51 234.342 161.613 234.312 161.721 234.281C161.824 234.251 161.928 234.22 162.035 234.189C162.204 234.14 162.38 234.086 162.557 234.033C162.676 233.994 162.798 233.96 162.921 233.922C163.017 233.891 163.109 233.864 163.205 233.834C163.419 233.769 163.638 233.7 163.864 233.627C163.96 233.597 164.052 233.57 164.148 233.539C164.294 233.493 164.439 233.447 164.589 233.398C164.673 233.371 164.761 233.34 164.85 233.314C165.122 233.226 165.402 233.134 165.686 233.038C165.755 233.015 165.828 232.992 165.897 232.969C166.065 232.912 166.234 232.859 166.403 232.797C166.483 232.771 166.564 232.744 166.644 232.717C166.951 232.614 167.262 232.507 167.58 232.396C167.653 232.369 167.726 232.346 167.798 232.319C167.983 232.254 168.17 232.189 168.358 232.12C168.431 232.094 168.5 232.071 168.573 232.044C168.907 231.925 169.244 231.803 169.585 231.677C169.674 231.646 169.758 231.612 169.846 231.581C170.042 231.508 170.233 231.436 170.433 231.363C170.506 231.336 170.579 231.306 170.651 231.279C171 231.149 171.357 231.011 171.717 230.874C171.821 230.835 171.924 230.793 172.028 230.755C172.227 230.679 172.427 230.598 172.63 230.522C172.718 230.487 172.806 230.453 172.895 230.418C173.247 230.277 173.608 230.135 173.968 229.99C174.091 229.94 174.214 229.891 174.336 229.841C174.54 229.761 174.739 229.677 174.942 229.592C175.18 229.493 175.418 229.394 175.659 229.294C175.686 229.283 175.709 229.271 175.736 229.263C173.987 213.537 174.927 197.497 178.566 182.077Z" fill="#91E0BC"/>
<path d="M256.327 116.835C255.184 102.78 250.518 89.2571 243.427 77.1067C237.587 67.1019 230.11 58.08 221.743 50.0754C216.754 45.3024 211.405 40.9311 205.807 36.8924C191.788 26.7767 175.786 19.7167 158.91 15.9534C146.444 13.1769 133.552 12.1902 120.802 12.8556C114.985 13.1577 109.168 13.8003 103.455 14.9438C96.2919 16.3779 89.2402 18.4164 82.384 20.9214C71.4363 24.918 60.8836 30.1537 51.2091 36.6515C39.4025 44.5758 28.8613 54.5003 20.6592 66.1229C10.3136 80.7859 3.62231 97.9195 1.24872 115.696C-0.952307 132.168 1.07617 148.949 7.01588 164.477C11.9279 177.304 19.3286 189.137 28.2976 199.524C34.4406 206.638 41.2661 213.201 48.7358 218.918C57.7393 225.81 67.9047 231.26 78.5571 235.134C92.4497 240.19 107.136 242.55 121.907 242.565C131.972 242.576 142.046 241.483 151.881 239.345C157.265 238.174 162.587 236.755 167.799 234.969C177.788 231.543 187.405 226.972 196.4 221.458C208.947 213.767 220.305 204.033 229.577 192.602C234.861 186.085 239.37 178.983 243.466 171.674C252.78 154.912 257.891 136.072 256.327 116.835ZM178.091 225.55C171.51 228.51 164.7 231.007 157.721 232.858C156.782 233.107 155.842 233.348 154.899 233.581C154.247 233.742 153.592 233.899 152.936 234.055C152.909 234.063 152.89 234.067 152.871 234.071H152.867C152.698 234.109 152.533 234.147 152.365 234.185C151.935 234.281 151.506 234.377 151.076 234.468C146.904 235.363 142.694 236.071 138.457 236.583C126.171 238.079 113.927 237.991 101.725 236.033C86.1035 233.528 70.9839 227.89 57.7355 219.224C52.4745 215.786 47.5778 211.797 42.9571 207.552C34.4943 199.773 27.1818 191.187 20.9736 181.289C13.155 168.829 7.82882 154.816 6.01507 140.199C3.90991 123.207 6.73596 105.748 13.2125 89.9417C19.1062 75.554 28.1366 62.7076 39.529 52.1215C48.6093 43.6885 59.3958 36.6668 70.3051 31.3967C78.7411 27.3236 87.5721 24.0384 96.6217 21.606C97.4269 21.3918 98.2322 21.1815 99.0413 20.9788C99.4132 20.887 99.7813 20.7952 100.153 20.7073C100.33 20.6652 100.506 20.6231 100.686 20.581C100.732 20.5696 100.874 20.5352 100.993 20.5084C101.169 20.4701 101.561 20.3784 101.672 20.3554C101.986 20.2866 102.301 20.2177 102.619 20.1489C103.133 20.038 103.65 19.9347 104.164 19.8314C106.009 19.4681 107.865 19.1583 109.724 18.8945C119.046 17.5712 128.621 17.2844 137.759 17.9116C152.376 18.9174 166.832 22.2064 180.288 28.0311C190.714 32.5478 200.339 38.5752 209.185 45.6696C212.394 48.2434 215.493 50.9512 218.468 53.7928C222.368 57.514 225.478 60.8413 228.837 64.9181C236.797 74.5864 243.217 85.3332 247.224 97.1852C252.473 112.716 253.002 129.479 248.919 145.351C246.733 153.845 243.209 161.934 238.952 169.59C231.195 183.442 221.513 195.933 209.269 206.133C199.744 214.065 189.165 220.57 178.091 225.55Z" fill="#2894AA"/>
<path fill-rule="evenodd" clip-rule="evenodd" d="M81.2724 131.318C80.7523 127.707 80.154 124.111 79.7904 120.484C79.7317 119.922 80.721 118.741 81.2841 118.702C90.8958 118.011 100.441 116.33 110.123 116.654C113.623 116.771 117.131 116.911 120.634 117.091C121.854 117.153 123.086 117.255 124.283 117.504C128.537 118.382 130.152 120.246 129.448 124.517C128.482 130.375 127.399 136.26 125.71 141.934C123.024 150.955 116.493 155.659 107.202 156.689C99.53 157.543 90.3406 152.683 86.5475 145.581C84.1348 141.088 82.3829 136.322 81.2724 131.318ZM124.603 122.438C123.606 122.18 122.789 121.841 121.948 121.771C110.366 120.819 98.8144 121.104 87.3178 122.867C85.6051 123.128 84.913 124.01 85.1867 125.843C86.0235 131.396 87.3843 136.794 89.8127 141.923C92.6164 147.847 97.4262 150.905 103.648 152.02C108.719 152.929 117.056 150.495 120.185 143.338C120.955 141.583 121.733 139.785 122.171 137.929C123.168 133.674 123.993 129.376 124.807 125.082C124.955 124.286 124.689 123.409 124.603 122.438Z" fill="#2894AA"/>
<path fill-rule="evenodd" clip-rule="evenodd" d="M124.603 122.438C124.689 123.409 124.955 124.286 124.807 125.078C123.997 129.372 123.168 133.67 122.171 137.925C121.733 139.782 120.955 141.58 120.184 143.335C117.052 150.495 108.715 152.925 103.647 152.016C97.4222 150.901 92.6124 147.843 89.8126 141.919C87.3881 136.794 86.0234 131.396 85.1866 125.839C84.9128 124.006 85.605 123.124 87.3177 122.863C98.8143 121.1 110.366 120.815 121.948 121.767C122.789 121.841 123.61 122.184 124.603 122.438Z" fill="#FFD152"/>
<path fill-rule="evenodd" clip-rule="evenodd" d="M70.9759 103.631C72.0004 108.3 69.662 112.773 65.7086 114.127C63.0926 115.024 60.848 114.407 59.0023 112.434C56.5232 109.782 56.1048 103.561 58.2242 100.593C59.8744 98.2805 62.244 97.169 65.0517 97.3991C67.5426 97.6019 69.1693 99.1853 70.1469 101.424C70.4949 102.223 70.7687 103.058 70.9759 103.631Z" fill="#2894AA"/>
<path fill-rule="evenodd" clip-rule="evenodd" d="M158.827 103.631C159.852 108.3 157.513 112.773 153.56 114.127C150.944 115.024 148.699 114.407 146.854 112.434C144.374 109.782 143.956 103.561 146.075 100.593C147.726 98.2805 150.095 97.169 152.903 97.3991C155.394 97.6019 157.02 99.1853 157.998 101.424C158.346 102.223 158.62 103.058 158.827 103.631Z" fill="#2894AA"/>
</svg>
